<svg xmlns="http://www.w3.org/2000/svg" viewBox="0 0 24 24" fill="none" stroke="currentColor" stroke-width="1.8" stroke-linecap="round" stroke-linejoin="round"><path d="M12 3a9 9 0 0 0-2.85 17.55c.45.08.62-.2.62-.44v-1.7c-2.5.55-3.03-1.06-3.03-1.06-.41-1.04-1-1.32-1-1.32-.82-.56.06-.55.06-.55.9.06 1.38.93 1.38.93.8 1.38 2.11.98 2.63.75.08-.58.31-.98.57-1.2-2-.23-4.1-1-4.1-4.45 0-.98.35-1.79.93-2.42-.1-.23-.4-1.15.08-2.4 0 0 .76-.24 2.48.92a8.6 8.6 0 0 1 4.5 0c1.72-1.16 2.48-.92 2.48-.92.49 1.25.18 2.17.09 2.4.58.63.93 1.44.93 2.42 0 3.47-2.1 4.22-4.11 4.44.32.28.61.83.61 1.67v2.47c0 .24.16.52.62.43A9 9 0 0 0 12 3z"/></svg>